<?xml version="1.0"?>
<svg width="126" height="126" xmlns="http://www.w3.org/2000/svg" xmlns:svg="http://www.w3.org/2000/svg">

 <g>
  <title>Layer 1</title>
  <path fill="black" id="svg_1" d="m102.365997,41.598l-2.448997,0l0,-11.819c0,-0.073999 -0.012001,-0.147999 -0.020996,-0.223c-0.004005,-0.469 -0.154007,-0.93 -0.475006,-1.295l-19.667,-22.464c-0.005997,-0.006 -0.012001,-0.008 -0.015999,-0.014c-0.116997,-0.131 -0.253998,-0.24 -0.398003,-0.334c-0.042999,-0.029 -0.085999,-0.053 -0.130997,-0.078c-0.125,-0.068 -0.258003,-0.125 -0.394997,-0.166c-0.037003,-0.01 -0.07,-0.025 -0.107002,-0.035c-0.148003,-0.035 -0.303001,-0.057 -0.459,-0.057l-48.331001,0c-2.207001,0 -4,1.795 -4,4l0,32.484l-2.448999,0c-3.157,0 -5.717001,2.558998 -5.717001,5.716999l0,29.73c0,3.155998 2.560001,5.717003 5.717001,5.717003l2.448999,0l0,20.351997c0,2.205002 1.792999,4 4,4l66,0c2.205002,0 4,-1.794998 4,-4l0,-20.350998l2.448997,0c3.157005,0 5.717003,-2.561005 5.717003,-5.717003l0,-29.73c0,-3.159 -2.559998,-5.716999 -5.717003,-5.716999zm-72.448997,-32.485l46.332001,0l0,20.464999c0,1.105001 0.895996,2 2,2l17.667999,0l0,10.02l-66,0l0,-32.485zm26.032001,44.325l0,-5.338001l21.602001,0l0,5.338001l-7.673004,0l0,22.77l-6.380997,0l0,-22.77l-7.548,0zm-3.379002,-5.336998l0,28.106998l-6.380001,0l0,-28.106998l6.380001,0zm-29.987,26.813999l1.292999,-5.253998c1.709,0.875 4.337,1.75 7.047001,1.75c2.918999,0 4.461998,-1.209 4.461998,-3.043007c0,-1.751999 -1.334,-2.753998 -4.711998,-3.962997c-4.671,-1.625 -7.715,-4.210999 -7.715,-8.299c0,-4.792999 4.003,-8.465 10.633999,-8.465c3.169003,0 5.505001,0.667999 7.172001,1.417999l-1.417,5.129002c-1.125999,-0.541 -3.126999,-1.334 -5.880001,-1.334s-4.087,1.251999 -4.087,2.710999c0,1.791 1.584002,2.586002 5.212999,3.961002c4.962002,1.834 7.298,4.422001 7.298,8.380997c0,4.713005 -3.627998,8.717003 -11.342999,8.717003c-3.211,0 -6.381001,-0.834 -7.965,-1.709zm73.334,27.113998l-66,0l0,-19.266998l66,0l0,19.266998zm0.569,-25.820999l-2.543999,-5.087997c-1.042,-1.959 -1.709999,-3.417999 -2.501999,-5.047005l-0.084,0c-0.583,1.629005 -1.292999,3.088005 -2.167999,5.047005l-2.336006,5.087997l-7.255997,0l8.131996,-14.219002l-7.839996,-13.889l7.297997,0l2.460007,5.129002c0.834999,1.709 1.459999,3.085999 2.126999,4.672001l0.084,0c0.667,-1.795002 1.209,-3.045002 1.917999,-4.672001l2.376999,-5.129002l7.255997,0l-7.922997,13.719002l8.339996,14.389l-7.338997,0z"/>
  <rect id="svg_3" height="31" width="84" y="46.5" x="21.5" stroke-linecap="null" stroke-linejoin="null" stroke-dasharray="null" stroke-width="0" stroke="#000000" fill="#000000"/>
  <text font-weight="bold" transform="matrix(1.36212, 0, 0, 1.54972, 88.8281, -23.6203)" xml:space="preserve" text-anchor="middle" font-family="Sans-serif" font-size="24" id="svg_2" y="64.189816" x="-18.961689" stroke-width="0" stroke="#000000" fill="#ffffff">TEST</text>
 </g>
</svg>